<?xml version="1.0" encoding="iso-8859-1"?>
<!-- Uploaded to: SVG Repo, www.svgrepo.com, Generator: SVG Repo Mixer Tools -->
<svg fill="#000000" height="800px" width="800px" version="1.1" id="Layer_1" xmlns="http://www.w3.org/2000/svg" xmlns:xlink="http://www.w3.org/1999/xlink" 
	 viewBox="0 0 330 330" xml:space="preserve">
<path id="XMLID_15_" d="M315,0H15C6.716,0,0,6.716,0,15v300c0,8.284,6.716,15,15,15h300c8.284,0,15-6.716,15-15V15
	C330,6.716,323.284,0,315,0z M215.606,175.605l-80,80.002C132.678,258.535,128.839,260,125,260c-3.839,0-7.678-1.464-10.606-4.394
	c-5.858-5.857-5.858-15.355,0-21.213l69.394-69.396l-69.394-69.392c-5.858-5.857-5.858-15.355,0-21.213
	c5.857-5.858,15.355-5.858,21.213,0l80,79.998c2.813,2.813,4.394,6.628,4.394,10.606C220,168.976,218.42,172.792,215.606,175.605z"
	/>
</svg>